<svg width="30" height="30" viewBox="0 0 30 30" fill="none" xmlns="http://www.w3.org/2000/svg">
<path d="M17.7498 0.174292C16.4502 0.640554 15.111 1.64252 14.0991 2.8925C13.5832 3.52741 13.4642 3.90439 13.9007 3.49765C14.0395 3.36868 14.2975 3.15043 14.4562 3.03139C14.6149 2.91234 14.7935 2.76353 14.853 2.71393C15.607 2.02942 17.8788 1.01753 18.1069 1.2457C18.1565 1.2953 18.3153 1.78141 18.4442 2.32703C18.7518 3.54725 18.7915 5.23373 18.5335 6.2357C18.4442 6.59283 18.345 6.92021 18.3053 6.97973C18.2557 7.02933 18.1466 7.27735 18.0573 7.51544C17.9284 7.86265 17.9085 8.01146 17.9978 8.20987C18.1863 8.68605 18.4343 8.76542 19.6347 8.73566C20.8351 8.70589 21.8172 8.9043 22.8588 9.38048C23.6723 9.75746 24.6445 10.4221 24.6445 10.6007C24.6445 10.8686 23.0275 12.3963 22.3727 12.7435C22.1743 12.8427 21.9958 12.9618 21.966 12.9915C21.8271 13.1701 20.3291 13.7753 19.6446 13.9241C18.5038 14.182 16.9859 14.053 15.3193 13.5768C14.6447 13.3784 14.6149 13.3288 14.8034 12.8526C14.9324 12.5253 14.9622 12.0689 14.9622 10.7495V9.06303L14.5852 8.17019C13.7618 6.19601 12.6904 4.79723 11.2817 3.85478C10.3095 3.20003 10.0912 3.20003 9.45629 3.85478C9.18844 4.13256 8.97019 4.38057 8.97019 4.41033C8.97019 4.44009 8.85114 4.6385 8.70234 4.83691C7.81942 5.99761 7.00594 8.04122 6.9861 9.11263C6.97618 9.93603 7.00594 9.91619 5.70636 9.84675C5.07145 9.81699 4.19844 9.83683 3.76194 9.88643C2.40284 10.065 0.220337 10.9182 0.021928 11.3447C-0.0871971 11.5927 0.230258 12.6642 0.547713 13.1007C0.646917 13.2495 0.736202 13.3983 0.736202 13.438C0.736202 13.6661 2.79966 15.8585 3.01791 15.8585C3.10719 15.8585 3.04767 15.7693 2.58141 15.2336C2.16475 14.7375 1.33143 13.2792 1.33143 13.0312C1.33143 12.9915 1.26199 12.813 1.1727 12.6344C0.924691 12.0987 1.01397 11.7912 1.48024 11.6324C3.256 11.0074 5.63691 10.9678 6.78769 11.5531C7.10514 11.7118 7.8591 11.9896 7.96822 11.9896C8.01783 11.9896 8.20631 11.8705 8.38488 11.7217L8.70234 11.4539L8.64281 10.6602C8.58329 9.80706 8.72218 8.32892 8.88091 8.17019C8.93051 8.12059 8.97019 7.99162 8.97019 7.87257C8.97019 7.76345 9.02971 7.56504 9.09916 7.42615C9.62494 6.43411 9.992 5.77936 10.0614 5.73967C10.1011 5.70991 10.1805 5.59087 10.2499 5.4619C10.3095 5.34285 10.4285 5.24365 10.5178 5.24365C10.7261 5.24365 12.0852 6.58291 12.5217 7.22774C12.7201 7.52536 12.9086 7.79321 12.9384 7.82297C13.0376 7.92218 13.6328 9.18208 13.8015 9.65826C14.0296 10.2832 14.0495 12.7138 13.8411 13.6264C13.6229 14.6086 13.4146 15.2633 13.3154 15.2633C13.2658 15.2633 13.0773 15.2038 12.8888 15.1244C12.2638 14.8566 10.746 14.7375 9.73407 14.8665C9.22812 14.9359 8.7817 15.0252 8.72218 15.0649C8.67258 15.1046 8.46425 15.1939 8.27576 15.2435C7.58132 15.4518 7.21427 15.6205 6.49007 16.047C6.08333 16.2951 5.69644 16.5431 5.63691 16.5927C5.56747 16.6522 5.25993 16.92 4.94248 17.1978C4.36709 17.6839 3.61314 18.547 3.61314 18.7256C3.61314 18.7752 3.58338 18.8347 3.54369 18.8545C3.49409 18.8744 3.38497 19.0529 3.29568 19.2514C3.13695 19.5986 3.13695 19.6482 3.27584 19.9458C3.43457 20.2732 4.49606 21.2156 4.69447 21.2156C4.75399 21.2156 4.80359 21.2454 4.80359 21.285C4.80359 21.414 6.19246 22.168 6.88689 22.4259C7.51188 22.6541 8.41464 22.8723 9.119 22.9517C9.44637 22.9914 9.74399 23.0707 9.77375 23.1203C9.81343 23.1799 9.80351 23.3783 9.75391 23.5866C9.63486 24.0925 9.64478 25.4913 9.77375 26.2651C10.0813 28.15 11.0535 30.1936 11.5396 29.9853C11.6289 29.9555 11.857 29.8861 12.0455 29.8266C12.4622 29.7174 13.0376 29.4496 13.2161 29.271C13.2856 29.2115 13.3947 29.152 13.4443 29.152C13.603 29.152 14.6447 28.3583 15.0514 27.9119C15.8352 27.0984 16.6189 26.037 16.3113 26.2254C16.232 26.275 15.8748 26.5528 15.5177 26.8504C14.6348 27.5845 14.5356 27.6639 14.476 27.6639C14.4463 27.6639 14.238 27.773 14.0197 27.9218C13.8015 28.0607 13.2558 28.3187 12.8094 28.4972C12.0753 28.7948 11.9761 28.8147 11.8273 28.6758C11.7281 28.5964 11.6487 28.4278 11.6487 28.3087C11.6487 28.1897 11.5892 27.902 11.5098 27.654C11.1626 26.5231 11.0535 25.0548 11.2618 24.2513C11.4801 23.3882 11.6884 22.7434 11.8174 22.5549C12.0059 22.2771 11.9662 21.7017 11.7479 21.4339C11.5694 21.2156 11.4801 21.2057 10.0416 21.1759C8.46425 21.1362 8.246 21.0966 7.10514 20.5708C6.81745 20.4319 6.56944 20.3228 6.53968 20.3228C6.48015 20.3228 5.58731 19.7275 5.37898 19.549C5.21033 19.4101 5.22025 19.3902 5.3889 19.1422C5.78572 18.5966 7.12498 17.3466 7.31347 17.3466C7.35315 17.3466 7.54164 17.2375 7.74005 17.0986C8.77178 16.4042 10.4384 15.8585 11.5594 15.8585C12.0455 15.8585 13.9007 16.176 14.6745 16.3943L15.1705 16.5331L15.1506 16.9597C15.1407 17.1879 15.0713 17.5153 15.0118 17.674C14.8233 18.1303 14.853 20.2434 15.0614 20.9676C15.6963 23.1501 17.0455 25.0647 18.7419 26.1758C19.5156 26.6917 19.843 26.7016 20.349 26.1957C20.7458 25.8088 21.3708 25.0449 21.3708 24.9556C21.3708 24.9159 21.47 24.7473 21.5989 24.5588C21.8073 24.2513 22.2835 23.3287 22.4719 22.8525C22.6803 22.3168 22.8688 21.4934 22.9382 20.8188L23.0077 20.0747L24.7437 20.0648C25.7556 20.0549 26.6485 20.0053 26.8766 19.9359C27.0949 19.8664 27.4421 19.7672 27.6604 19.7176C27.8687 19.668 28.2953 19.5093 28.6028 19.3704C30.2496 18.6164 30.2298 18.6561 29.4857 17.0788C29.3171 16.7415 29.1087 16.3843 28.9996 16.2653C28.9004 16.1562 28.8111 16.0371 28.8111 16.0074C28.8111 15.8982 27.8092 14.8367 27.4024 14.5193C27.0254 14.2118 27.0354 14.2911 27.4322 14.8268C28.0373 15.6105 28.4441 16.3645 28.7516 17.2573C29.0095 17.9915 29.0095 17.9915 28.8111 18.1601C28.5135 18.4081 26.9064 18.7553 25.7854 18.8049C24.7041 18.8645 23.8112 18.6958 22.6208 18.2097C22.0156 17.9617 21.847 17.9617 21.5295 18.1998C21.3509 18.3188 21.3311 18.4776 21.3212 19.6482C21.3113 21.1065 21.1922 21.6521 20.6763 22.7533C20.2398 23.6957 19.595 24.6878 19.4264 24.6878C19.1883 24.6878 18.1268 23.6858 17.4621 22.8128C17.0058 22.2176 16.2518 20.7394 16.0931 20.1442C15.7359 18.7553 15.7359 18.0411 16.0732 16.4935C16.2121 15.8387 16.351 15.2038 16.3808 15.0649C16.4601 14.7177 16.5891 14.6681 17.0157 14.8169C17.224 14.8963 17.8391 15.0153 18.3847 15.0748C19.8827 15.2633 21.1724 15.0252 22.7596 14.2514C23.4342 13.9241 24.2775 13.3983 24.3271 13.2594C24.3469 13.2197 24.4064 13.18 24.466 13.18C24.6048 13.18 26.1326 11.6523 26.1326 11.5134C26.1326 11.4539 26.1723 11.3943 26.212 11.3745C26.3905 11.3051 26.7278 10.5709 26.7278 10.2634C26.7278 9.99555 26.6385 9.84675 26.2318 9.46977C25.954 9.22176 25.6961 9.01343 25.6564 9.01343C25.6167 9.00351 25.4282 8.87454 25.2398 8.71581C25.0513 8.54717 24.8429 8.4182 24.7834 8.4182C24.714 8.4182 24.6445 8.37852 24.6247 8.33884C24.5751 8.19995 23.4342 7.66424 22.6208 7.38647C22.1942 7.23766 21.4501 7.06902 20.964 7.00949L20.0811 6.90037L20.1605 6.49363C20.2894 5.73967 20.2299 3.84486 20.0414 3.11075C19.7736 2.03934 19.5752 1.48379 19.2577 0.888566C18.7419 -0.0935605 18.6327 -0.143163 17.7498 0.174292ZM15.9939 14.4697C16.1526 14.4697 16.1427 14.6879 15.9641 15.0352C15.8848 15.184 15.7459 15.4915 15.6566 15.7097C15.5574 15.928 15.4681 16.1165 15.4582 16.1363C15.4483 16.1562 15.0812 15.9974 14.6348 15.7891C13.9999 15.4915 13.8312 15.3724 13.8312 15.1939C13.8312 15.0748 13.861 14.9657 13.9106 14.9459C14.0098 14.9062 14.3272 14.2812 14.3272 14.1324C14.3272 13.7951 14.5554 13.7951 15.2102 14.1324C15.5673 14.3209 15.9244 14.4697 15.9939 14.4697Z" fill="white"/>
<path d="M22.8179 3.27942C22.6289 3.40839 22.3604 3.71592 22.2311 3.96393C21.9029 4.579 21.9924 4.99566 22.5792 5.61073C23.0168 6.07699 23.0367 6.08691 23.6434 6.08691C24.1904 6.08691 24.2998 6.04723 24.5982 5.7893C25.0259 5.4024 25.2049 5.04526 25.2049 4.56908C25.2049 3.71592 24.638 3.15046 23.723 3.08101C23.2654 3.05125 23.1063 3.08101 22.8179 3.27942Z" fill="white"/>
<path d="M3.6721 5.36267C2.52832 5.75949 2.38908 7.20788 3.41351 7.97176C3.60248 8.11064 3.83123 8.17017 4.22907 8.17017C4.70647 8.17017 4.83577 8.12056 5.13414 7.87255C5.54192 7.51542 5.711 7.19796 5.711 6.76146C5.711 5.69005 4.70647 5.00554 3.6721 5.36267Z" fill="white"/>
<path d="M25.1552 21.8902C24.5485 22.1779 24.3794 22.4259 24.3297 23.1005C24.2899 23.6064 24.3197 23.7453 24.5187 24.033C24.7972 24.4497 25.2746 24.6877 25.8116 24.6877C27.0748 24.6877 27.7312 23.1699 26.8758 22.2076C26.478 21.7612 25.7321 21.6223 25.1552 21.8902Z" fill="white"/>
<path d="M5.66132 23.9834C5.10435 24.2711 4.81592 24.7572 4.81592 25.3921C4.81592 26.3246 5.40272 26.9 6.34758 26.9C6.96422 26.9 7.20293 26.781 7.56098 26.3246C8.54562 25.035 7.09352 23.2493 5.66132 23.9834Z" fill="white"/>
</svg>
