<svg xmlns="http://www.w3.org/2000/svg" width="158" height="158" viewBox="0 0 158 158" fill="none">
  <path d="M45.8841 91.3762C45.7401 90.9095 45.5721 90.4615 45.4455 89.9829L13.3267 101.674C13.9027 102.002 14.4974 102.298 15.1001 102.582L45.8841 91.3762Z" fill="white"/>
  <path d="M44.0654 78.8255C44.0654 78.5762 44.0908 78.3429 44.0934 78.0962H0.0373333C0.0306666 78.3415 0 78.5802 0 78.8268C0 79.0735 0.0306666 79.3108 0.0373333 79.5548H44.0948C44.0908 79.3082 44.0654 79.0735 44.0654 78.8255Z" fill="white"/>
  <path d="M48.1841 97.0162C47.9588 96.5856 47.7388 96.1536 47.5308 95.7082L30.7281 105.41C31.4934 105.51 32.2441 105.639 32.9841 105.792L48.1828 97.0176L48.1841 97.0162Z" fill="white"/>
  <path d="M44.5628 85.5029C44.4935 85.0255 44.4375 84.5389 44.3841 84.0522L3.15869 91.3215C3.40803 91.7815 3.69336 92.2175 3.96803 92.6602L44.5628 85.5029Z" fill="white"/>
  <path d="M51.5681 102.152C51.2601 101.778 50.9708 101.384 50.6801 100.992L41.2254 108.926C41.6614 109.188 42.0774 109.478 42.4934 109.767L51.5681 102.152Z" fill="white"/>
  <path d="M111.551 65.9228C111.707 66.3801 111.851 66.8468 111.99 67.3161L143.878 55.7095C143.283 55.3868 142.664 55.1015 142.042 54.8255L111.551 65.9228Z" fill="white"/>
  <path d="M113.04 71.9468C113.119 72.4242 113.191 72.9042 113.252 73.3908L154.386 66.1375C154.132 65.6802 153.852 65.2401 153.572 64.7988L113.04 71.9455V71.9468Z" fill="white"/>
  <path d="M55.9775 106.483C55.5935 106.18 55.2375 105.851 54.8708 105.531L47.3895 114.447C47.6935 114.843 47.9975 115.238 48.2775 115.659L55.9775 106.483Z" fill="white"/>
  <path d="M96.7015 48.2934L105.699 32.7121C105.555 31.9601 105.454 31.1734 105.362 30.3787L95.4002 47.6321C95.8415 47.8441 96.2735 48.0641 96.7015 48.2934Z" fill="white"/>
  <path d="M157.619 79.5548C157.626 79.3108 157.655 79.0722 157.655 78.8268C157.655 78.5815 157.626 78.3402 157.619 78.0962H113.576C113.58 78.3402 113.592 78.5802 113.592 78.8255C113.592 79.0708 113.58 79.3108 113.576 79.5548H157.619Z" fill="white"/>
  <path d="M59.9255 109.075L51.6174 123.464C51.7881 124.158 51.9494 124.859 52.0734 125.591L61.1948 109.792C60.7548 109.572 60.3521 109.312 59.9255 109.075Z" fill="white"/>
  <path d="M78.8282 113.587C78.3762 113.587 77.9482 113.546 77.5029 113.534V157.587C77.9442 157.61 78.3815 157.654 78.8282 157.654C78.8735 157.654 78.9175 157.647 78.9629 157.647V113.583C78.9175 113.583 78.8749 113.587 78.8282 113.587Z" fill="white"/>
  <path d="M59.9255 48.5761C60.3508 48.3388 60.7548 48.0774 61.1961 47.8588L52.0748 32.0587C51.9508 32.7921 51.7894 33.4934 51.6188 34.1867L59.9255 48.5761Z" fill="white"/>
  <path d="M96.7015 109.358C96.2735 109.587 95.8402 109.808 95.3989 110.02L105.36 127.275C105.451 126.48 105.554 125.694 105.698 124.942L96.7002 109.359L96.7015 109.358Z" fill="white"/>
  <path d="M44.5628 72.1482L3.96937 64.9908C3.6947 65.4335 3.40803 65.8695 3.16003 66.3295L44.3841 73.5988C44.4388 73.1122 44.4935 72.6255 44.5628 72.1482Z" fill="white"/>
  <path d="M48.1841 60.6348L32.9867 51.8601C32.2467 52.0135 31.4961 52.1428 30.7321 52.2428L47.5321 61.9428C47.7401 61.4988 47.9588 61.0655 48.1841 60.6348Z" fill="white"/>
  <path d="M55.9775 51.1681L48.2775 41.9921C47.9975 42.4134 47.6935 42.8081 47.3895 43.2041L54.8721 52.1215C55.2388 51.8015 55.5948 51.4721 55.9788 51.1694L55.9775 51.1681Z" fill="white"/>
  <path d="M45.8841 66.2762L15.1013 55.0721C14.4987 55.3561 13.904 55.6521 13.328 55.9801L45.4441 67.6695C45.5707 67.1908 45.7401 66.7428 45.8841 66.2762Z" fill="white"/>
  <path d="M51.5668 55.4988L42.4921 47.8841C42.0761 48.1734 41.6588 48.4614 41.2228 48.7241L50.6788 56.6575C50.9695 56.2655 51.2588 55.8748 51.5668 55.4988Z" fill="white"/>
  <path d="M71.4642 44.6468C71.9362 44.5708 72.4308 44.5268 72.9135 44.4654L65.6962 3.53734C65.2442 3.79868 64.7935 4.06268 64.3588 4.35068L71.4642 44.6468Z" fill="white"/>
  <path d="M66.9388 45.6668L55.4948 14.224C55.1828 14.8267 54.8774 15.4334 54.6108 16.0627L65.5481 46.1108C66.0081 45.9574 66.4655 45.8028 66.9388 45.6668Z" fill="white"/>
  <path d="M66.9401 111.984C66.4668 111.848 66.0081 111.694 65.5481 111.54L54.6108 141.59C54.8761 142.219 55.1828 142.826 55.4948 143.428L66.9401 111.984Z" fill="white"/>
  <path d="M72.9148 113.184C72.4322 113.123 71.9375 113.08 71.4642 113.003L64.3588 153.3C64.7935 153.588 65.2442 153.852 65.6975 154.114L72.9148 113.184Z" fill="white"/>
  <path d="M77.5015 0.0666658V44.1174C77.9469 44.1054 78.3749 44.0641 78.8269 44.0641C78.8722 44.0641 78.9162 44.0668 78.9615 44.0668V0.00666556C78.9162 0.00666556 78.8735 0 78.8269 0C78.3789 0 77.9429 0.0453324 77.5015 0.0666658Z" fill="white"/>
  <path d="M83.5735 44.3308C84.0602 44.3841 84.5442 44.4468 85.0229 44.5161L92.2202 3.69601C91.7776 3.43201 91.3322 3.17467 90.8736 2.93734L83.5749 44.3294L83.5735 44.3308Z" fill="white"/>
  <path d="M89.5975 112.186L101.438 144.718C101.768 144.159 102.076 143.587 102.367 143.002L90.9975 111.767C90.5362 111.914 90.0709 112.056 89.5975 112.186Z" fill="white"/>
  <path d="M83.5735 113.32L90.8722 154.715C91.3309 154.478 91.7776 154.22 92.2202 153.956L85.0215 113.135C84.5429 113.206 84.0602 113.267 83.5735 113.32Z" fill="white"/>
  <path d="M100.74 106.786L108.879 116.486C109.144 116.046 109.406 115.603 109.696 115.19L101.887 105.883C101.512 106.192 101.13 106.494 100.74 106.786Z" fill="white"/>
  <path d="M105.346 102.528L114.507 110.215C114.912 109.912 115.342 109.643 115.767 109.367L106.284 101.41C105.98 101.791 105.667 102.164 105.346 102.528Z" fill="white"/>
  <path d="M108.986 60.2268C109.226 60.6481 109.46 61.0735 109.683 61.5081L125.946 52.1188C125.214 51.9988 124.496 51.8481 123.788 51.6801L108.986 60.2268Z" fill="white"/>
  <path d="M100.74 50.8654C101.13 51.1574 101.512 51.4588 101.887 51.7695L109.695 42.4628C109.404 42.0494 109.144 41.6054 108.878 41.1668L100.739 50.8668L100.74 50.8654Z" fill="white"/>
  <path d="M105.346 55.1228C105.667 55.4868 105.979 55.8588 106.284 56.2401L115.767 48.2828C115.342 48.0068 114.912 47.7374 114.508 47.4348L105.346 55.1228Z" fill="white"/>
  <path d="M111.55 91.7295L142.044 102.828C142.667 102.551 143.284 102.267 143.88 101.944L111.99 90.3375C111.851 90.8069 111.707 91.2735 111.551 91.7309L111.55 91.7295Z" fill="white"/>
  <path d="M113.04 85.7042L153.574 92.8509C153.854 92.4109 154.134 91.9709 154.387 91.5122L113.252 84.2589C113.191 84.7455 113.118 85.2269 113.04 85.7042Z" fill="white"/>
  <path d="M108.986 97.4242L123.788 105.971C124.496 105.802 125.212 105.65 125.944 105.531L109.683 96.1415C109.46 96.5762 109.226 97.0029 108.986 97.4242Z" fill="white"/>
  <path d="M89.5975 45.4654C90.0695 45.5948 90.5362 45.7374 90.9975 45.8841L102.367 14.6507C102.078 14.0667 101.768 13.4947 101.438 12.936L89.5975 45.4654Z" fill="white"/>
</svg>
